<svg t="1610031952660" class="icon" viewBox="0 0 1024 1024" version="1.1" xmlns="http://www.w3.org/2000/svg" p-id="766" width="128" height="128"><path d="M556.864 540.544l268.672-154.88v294.4L556.8 834.752V540.544zM467.2 540.16v294.656L198.4 680V385.408L467.2 540.16z m45.12-77.376L244.48 308.544 512 158.976l267.712 149.76-267.52 154.048z m-12.8-395.52l-377.6 211.136a25.6 25.6 0 0 0-13.12 22.272v432h1.728L499.2 956.608c7.936 4.48 17.728 4.48 25.6 0l388.672-223.936h1.728v-432a25.6 25.6 0 0 0-13.056-22.272l-377.6-211.2a25.792 25.792 0 0 0-25.088 0z" p-id="767"></path></svg>
